<?xml version="1.0" standalone="no"?>
<!DOCTYPE svg PUBLIC "-//W3C//DTD SVG 1.1//EN" "http://www.w3.org/Graphics/SVG/1.1/DTD/svg11.dtd" >
<svg xmlns="http://www.w3.org/2000/svg">
<metadata>Generated by IcoMoon</metadata>
<defs>
<font id="NagishLi" horiz-adv-x="1024">
<font-face units-per-em="1024" ascent="960" descent="-64" />
<missing-glyph horiz-adv-x="1024" />
<glyph unicode="&#x20;" horiz-adv-x="512" d="" />
<glyph unicode="&#xe902;" glyph-name="text-size-bigger" d="M948.788 116.546h-78.526l-282 774.786c-4.248 11.67-15.338 19.436-27.756 19.436h-139.13c-12.418 0-23.508-7.766-27.756-19.436l-281.998-774.786h-78.526c-16.314 0-29.538-13.226-29.538-29.538v-121.47c0-16.314 13.226-29.538 29.538-29.538h345.72c16.314 0 29.538 13.226 29.538 29.538v121.47c0 16.314-13.226 29.538-29.538 29.538h-75.062l46.516 127.8h281.344l46.516-127.8h-75.062c-16.314 0-29.538-13.226-29.538-29.538v-121.47c0-16.314 13.226-29.538 29.538-29.538h345.72c16.314 0 29.538 13.226 29.538 29.538v121.47c0 16.314-13.226 29.538-29.538 29.538zM412.582 415.55l78.36 215.292 78.36-215.292h-156.72zM1017.324 701.898l-120.884 241.774c-5.004 10.006-15.232 16.328-26.422 16.328s-21.416-6.322-26.422-16.328l-120.888-241.772c-4.578-9.154-4.088-20.032 1.294-28.738 5.382-8.708 14.89-14.010 25.128-14.010h241.772c10.238 0 19.746 5.302 25.128 14.010 5.384 8.706 5.872 19.582 1.294 28.736z" />
<glyph unicode="&#xe903;" glyph-name="text-size-smaller" d="M887.25 100.874h-65.726l-244.698 672.306c-4.248 11.67-15.34 19.436-27.758 19.436h-121.176c-12.418 0-23.508-7.766-27.756-19.436l-244.7-672.306h-65.726c-16.314 0-29.538-13.226-29.538-29.538v-105.796c0-16.314 13.226-29.538 29.538-29.538h301.112c16.314 0 29.538 13.226 29.538 29.538v105.796c0 16.312-13.226 29.538-29.538 29.538h-59.932l37.738 103.686h239.706l37.738-103.686h-59.932c-16.314 0-29.538-13.226-29.538-29.538v-105.796c0-16.314 13.226-29.538 29.538-29.538h301.112c16.314 0 29.538 13.226 29.538 29.538v105.796c0 16.312-13.226 29.538-29.54 29.538zM425.676 361.292l62.804 172.556 62.806-172.556h-125.61zM959.416 945.99c-5.382 8.708-14.89 14.010-25.126 14.010h-241.772c-10.236 0-19.744-5.302-25.128-14.010-5.382-8.708-5.87-19.584-1.292-28.738l120.888-241.772c5.002-10.008 15.23-16.328 26.42-16.328s21.418 6.322 26.42 16.328l120.886 241.772c4.576 9.156 4.088 20.030-1.296 28.738z" />
<glyph unicode="&#xe904;" glyph-name="text-size-normal" d="M994.462 123.076h-83.86l-297.542 817.488c-4.246 11.67-15.34 19.436-27.756 19.436h-146.608c-12.418 0-23.508-7.766-27.758-19.436l-297.54-817.488h-83.86c-16.312 0-29.538-13.224-29.538-29.538v-128c0-16.312 13.226-29.538 29.538-29.538h364.308c16.314 0 29.538 13.226 29.538 29.538v128c0 16.314-13.226 29.538-29.538 29.538h-81.364l50.172 137.846h298.696l50.172-137.846h-81.368c-16.314 0-29.538-13.226-29.538-29.538v-128c0-16.314 13.226-29.538 29.538-29.538h364.308c16.314 0 29.538 13.226 29.538 29.538v128c0 16.314-13.226 29.538-29.538 29.538zM427.158 438.154l84.842 233.098 84.842-233.098h-169.684z" />
<glyph unicode="&#xe905;" glyph-name="colors-filter-blue-light" d="M653.795 206.404c-171.294 21.76-308.155 161.427-326.819 333.122-17.172 157.953 62.963 298.846 187.887 370.651 24.276 13.942 14.232 51.137-13.742 49.8-31.314-1.492-63.275-5.991-95.703-13.853-215.994-52.54-376.776-241.339-391.386-463.169-19.644-298.645 216.729-546.934 511.12-546.934 224.457 0 415.128 144.345 484.372 345.305 9.221 26.793-23.653 47.038-44.076 27.395-78.932-75.769-190.559-117.685-311.652-102.318z" />
<glyph unicode="&#xe906;" glyph-name="highlight-links" d="M66.527 851.040l42.426 42.426 134.347-134.347-42.426-42.426-134.347 134.347zM291.081 958.626h60v-150h-60v150zM1.378 668.923h150v-60h-150v60zM780.682 136.886l42.426 42.426 134.347-134.347-42.426-42.426-134.347 134.347zM872.62 287.083h150v-60h-150v60zM672.921 87.384h60v-150h-60v150zM702.625 638.625c-7.17 7.17-14.656 13.834-22.398 20.028l-129.744-129.744c8.994-4.284 17.426-10.128 24.862-17.564 35.090-35.090 35.092-92.188 0-127.28l-241.83-241.828c-35.092-35.090-92.188-35.090-127.28 0s-35.090 92.188 0 127.28l17.898 17.898c-37.316 66.896-49.562 144.114-36.764 217.794l-108.414-108.414c-105.274-105.274-105.274-276.563 0-381.837s276.563-105.274 381.837 0l241.83 241.83c105.274 105.274 105.274 276.565 0.002 381.837zM945.044 881.044c-105.274 105.274-276.563 105.274-381.837 0l-241.828-241.828c-105.274-105.272-105.274-276.563 0-381.837 7.108-7.108 14.608-13.768 22.416-20.010l129.724 129.724c-8.994 4.284-17.426 10.128-24.862 17.564-34.978 34.978-35.082 91.812-0.332 126.93-0.008 0.008 242.16 242.178 242.16 242.178 35.092 35.092 92.188 35.090 127.28 0s35.092-92.188 0-127.28l127.28-127.278c105.274 105.274 105.274 276.563 0 381.837z" />
<glyph unicode="&#xe907;" glyph-name="highlight-headings" d="M163.398 375.526l-21.24-21.24c-33.716-33.716-35.064-87.746-4.016-123.072-3.546-7.448-13.428-20.2-19.73-28.35-19.906-25.712-53.24-68.778-18.704-103.314l84.902-84.902c31.308-31.304 68.398-8.256 103.284 18.704 8.15 6.302 20.902 16.214 28.38 19.73 35.238-30.988 89.358-29.668 123.072 4.016l21.24 21.24-297.188 297.188zM997.746 821.568l-90.764 90.766c-33.276 33.244-87.072 35.21-122.692 4.37l-576.986-500.182 294.276-294.28 500.536 576.664c30.782 35.502 28.878 89.388-4.37 122.662zM142.156-27.804l-84.902 84.902c-7.634 7.63-13.432 15.738-18.388 24.062l-30.072-30.072c-11.726-11.726-11.726-30.726 0-42.452l42.452-42.452c5.63-5.63 13.252-8.796 21.224-8.796h84.902c0.766 0 1.392 0.424 2.148 0.48-6.090 4.12-11.906 8.87-17.364 14.328z" />
<glyph unicode="&#xe908;" glyph-name="colors-filter-invert" d="M0 448c0-282.317 229.683-512 512-512s512 229.683 512 512-229.683 512-512 512-512-229.683-512-512zM512 846.222v-796.444c-219.58 0-398.222 178.642-398.222 398.222s178.642 398.222 398.222 398.222z" />
<glyph unicode="&#xe909;" glyph-name="colors-filter-brightness" d="M748.062 476.5c-13.342 108.86-99.258 194.56-208.152 207.626-9.376 1.070-18.804 1.606-28.242 1.608-96.236-0.148-182.888-58.308-219.484-147.314s-15.914-191.298 52.386-259.096c36.32-34.782 57.12-82.714 57.714-133v-27.466h219.428v27.608c0.166 49.334 20.236 96.512 55.662 130.848 53.508 51.626 79.68 125.372 70.686 199.178v0.008zM512-64c23.24 0.026 43.95 14.67 51.724 36.572h-103.446c7.772-21.902 28.482-36.546 51.722-36.572zM420.572 27.428c0.014-10.094 8.192-18.272 18.286-18.286h146.286c10.094 0.014 18.272 8.192 18.286 18.286v54.858h-182.858v-54.858zM512 795.428c20.198 0 36.572 16.374 36.572 36.572v91.428c0 20.198-16.374 36.572-36.572 36.572s-36.572-16.374-36.572-36.572v-91.428c0-20.198 16.374-36.572 36.572-36.572zM203.358 704.92c14.472-13.822 37.252-13.822 51.724 0 6.86 6.858 10.714 16.162 10.714 25.862s-3.854 19.004-10.714 25.862l-64.654 64.642c-6.856 6.86-16.158 10.714-25.856 10.714s-19-3.854-25.858-10.714c-6.86-6.856-10.714-16.158-10.714-25.858s3.854-19 10.714-25.858l64.644-64.65zM164.572 448c0 20.198-16.374 36.572-36.572 36.572h-91.428c-20.19-0.020-36.552-16.382-36.572-36.572 0.020-20.19 16.382-36.552 36.572-36.572h91.428c20.198 0 36.572 16.374 36.572 36.572zM238.712 200.602c-12.64 3.378-26.12-0.252-35.354-9.522l-64.642-64.652c-6.86-6.856-10.714-16.158-10.714-25.858s3.854-19 10.714-25.858c14.468-13.822 37.246-13.822 51.714 0l64.652 64.642c9.268 9.234 12.9 22.714 9.522 35.354s-13.252 22.516-25.892 25.894zM820.642 191.080c-9.234 9.268-22.714 12.9-35.354 9.522s-22.512-13.25-25.89-25.89 0.252-26.12 9.522-35.354l64.652-64.642c14.468-13.822 37.246-13.822 51.714 0 6.86 6.856 10.714 16.158 10.714 25.858s-3.854 19-10.714 25.858l-64.644 64.648zM987.428 484.572h-91.428c-20.198 0-36.572-16.374-36.572-36.572s16.374-36.572 36.572-36.572h91.428c20.198 0 36.572 16.374 36.572 36.572s-16.374 36.572-36.572 36.572zM820.642 704.92l64.642 64.652c9.238 9.238 12.846 22.702 9.464 35.322s-13.238 22.476-25.858 25.858c-12.62 3.382-26.084-0.226-35.322-9.464l-64.652-64.642c-6.86-6.858-10.714-16.162-10.714-25.862s3.854-19.004 10.714-25.862c14.474-13.824 37.256-13.824 51.726-0.002z" />
<glyph unicode="&#xe90a;" glyph-name="option-keyboard" d="M965.832 772.525h-907.665c-32.013 0-58.168-25.945-58.168-58.168v-532.714c0-32.013 25.945-58.168 58.168-58.168h907.665c32.013 0 58.168 25.945 58.168 58.168v532.714c-0.209 32.222-26.154 58.168-58.168 58.168zM640.052 650.331c0 7.951 6.486 14.437 14.437 14.437h59.214c7.951 0 14.437-6.486 14.437-14.437v-58.168c0-7.951-6.486-14.437-14.437-14.437h-59.214c-7.951 0-14.437 6.486-14.437 14.437v58.168zM568.075 492.358h59.214c7.951 0 14.437-6.486 14.437-14.437v-58.168c0-7.951-6.486-14.437-14.437-14.437h-59.214c-7.951 0-14.437 6.486-14.437 14.437v58.168c0 7.951 6.486 14.437 14.437 14.437zM468.060 650.331c0 7.951 6.486 14.437 14.437 14.437h59.214c7.951 0 14.437-6.486 14.437-14.437v-58.168c0-7.951-6.486-14.437-14.437-14.437h-59.214c-7.951 0-14.437 6.486-14.437 14.437v58.168zM395.874 492.358h59.214c7.951 0 14.437-6.486 14.437-14.437v-58.168c0-7.951-6.486-14.437-14.437-14.437h-59.214c-7.951 0-14.437 6.486-14.437 14.437v58.168c0 7.951 6.486 14.437 14.437 14.437zM295.859 650.331c0 7.951 6.486 14.437 14.437 14.437h59.214c7.951 0 14.437-6.486 14.437-14.437v-58.168c0-7.951-6.486-14.437-14.437-14.437h-59.214c-7.951 0-14.437 6.486-14.437 14.437v58.168zM122.821 650.331c0 7.951 6.486 14.437 14.437 14.437h59.214c7.951 0 14.437-6.486 14.437-14.437v-58.168c0-7.951-6.486-14.437-14.437-14.437h-59.214c-7.951 0-14.437 6.486-14.437 14.437v58.168zM210.91 245.669c0-7.951-6.486-14.437-14.437-14.437h-59.214c-7.951 0-14.437 6.486-14.437 14.437v58.168c0 7.951 6.486 14.437 14.437 14.437h59.214c7.951 0 14.437-6.486 14.437-14.437v-58.168zM282.050 405.316h-59.214c-7.951 0-14.437 6.486-14.437 14.437v58.168c0 7.951 6.486 14.437 14.437 14.437h59.214c7.951 0 14.437-6.486 14.437-14.437v-58.168c0-7.951-6.486-14.437-14.437-14.437zM728.141 245.669c0-7.951-6.486-14.437-14.437-14.437h-403.197c-7.951 0-14.437 6.486-14.437 14.437v58.168c0 7.951 6.486 14.437 14.437 14.437h403.197c7.951 0 14.437-6.486 14.437-14.437v-58.168zM799.281 405.316h-59.214c-7.951 0-14.437 6.486-14.437 14.437v58.168c0 7.951 6.486 14.437 14.437 14.437h59.214c7.951 0 14.437-6.486 14.437-14.437v-58.168c0-7.951-6.486-14.437-14.437-14.437zM901.179 245.669c0-7.951-6.486-14.437-14.437-14.437h-59.214c-7.951 0-14.437 6.486-14.437 14.437v58.168c0 7.951 6.486 14.437 14.437 14.437h59.214c7.951 0 14.437-6.486 14.437-14.437v-58.168zM901.179 592.163c0-7.951-6.486-14.437-14.437-14.437h-59.214c-7.951 0-14.437 6.486-14.437 14.437v58.168c0 7.951 6.486 14.437 14.437 14.437h59.214c7.951 0 14.437-6.486 14.437-14.437v-58.168z" />
<glyph unicode="&#xe90b;" glyph-name="trigger-icon" d="M631.467 857.6c-47.128 0-85.333-38.205-85.333-85.333v0c0-47.128 38.205-85.333 85.333-85.333v0c47.128 0 85.333 38.205 85.333 85.333v0c0 47.128-38.205 85.333-85.333 85.333v0zM562.867 652.867c-1.212-0.011-2.392-0.083-3.555-0.214l0.155 0.014c-7.981-0.374-15.497-1.785-22.603-4.104l0.604 0.17-168.133-30.6c-5.474-1.024-10.309-3.222-14.419-6.329l0.086 0.062-136.533-102.4c-8.117-6.305-13.29-16.067-13.29-27.037 0-18.859 15.288-34.147 34.147-34.147 6.92 0 13.359 2.058 18.739 5.596l-0.129-0.080 0.333 0.2c0.045 0.045 0.088 0.088 0.132 0.132l0.002 0.002 131 82.8 73.4-0.333-30.267-90c-7.544 0.851-15.17 1.4-22.933 1.4-112.704 0-204.8-92.096-204.8-204.8s92.096-204.8 204.8-204.8c112.704 0 204.8 92.096 204.8 204.8 0 5.468-0.375 10.837-0.8 16.2l50.133-21.8 18.933-165.067c-0.002-0.144-0.003-0.313-0.003-0.483 0-18.853 15.284-34.137 34.137-34.137s34.137 15.284 34.137 34.137c0 0.17-0.001 0.339-0.004 0.508v-0.026 238.933c-0.014 14.277-8.789 26.5-21.239 31.584l-0.228 0.082-133.8 53.533 11.6 34.4c1.584 3.566 3.067 7.851 4.204 12.275l0.129 0.592 32.8 97.133-0.067 0.133c2.645 7.841 4.18 16.871 4.2 26.257v0.010c-0.038 45.434-35.577 82.555-80.373 85.123l-0.227 0.010c-1.298 0.175-2.799 0.275-4.323 0.275-0.262 0-0.523-0.003-0.783-0.009l0.039 0.001zM409.6 379.733c75.81 0 136.533-60.724 136.533-136.533s-60.724-136.533-136.533-136.533c-75.81 0-136.533 60.724-136.533 136.533s60.724 136.533 136.533 136.533z" />
<glyph unicode="&#xe90c;" glyph-name="trigger-icon-active" d="M699.733 857.6c-47.128 0-85.333-38.205-85.333-85.333v0c0-47.128 38.205-85.333 85.333-85.333v0c47.128 0 85.333 38.205 85.333 85.333v0c0 47.128-38.205 85.333-85.333 85.333v0zM631.133 652.867c-1.341-0.023-2.634-0.119-3.906-0.285l0.172 0.018c-8.054-0.378-15.638-1.813-22.803-4.172l0.603 0.172-167.6-30.467c-5.474-1.024-10.309-3.222-14.419-6.329l0.086 0.062-136.533-102.4c-8.117-6.305-13.29-16.067-13.29-27.037 0-18.859 15.288-34.147 34.147-34.147 6.92 0 13.359 2.058 18.739 5.596l-0.129-0.080 0.333 0.2c0.045 0.045 0.088 0.088 0.132 0.132l0.002 0.002 131 82.8 73.4-0.333-30.333-90.133c-7.524 0.906-15.102 1.533-22.867 1.533-112.695 0-204.8-92.105-204.8-204.8h-68.267c-0.144 0.002-0.313 0.003-0.483 0.003-18.853 0-34.137-15.284-34.137-34.137s15.284-34.137 34.137-34.137c0.17 0 0.339 0.001 0.508 0.004h99.641c1.864-0.361 4.008-0.568 6.2-0.568s4.336 0.207 6.413 0.601l-0.213-0.034h92.733c0.144-0.002 0.313-0.003 0.483-0.003 18.853 0 34.137 15.284 34.137 34.137s-15.284 34.137-34.137 34.137c-0.17 0-0.339-0.001-0.508-0.004h-68.241c0 75.789 60.745 136.533 136.533 136.533s136.533-60.745 136.533-136.533c0-75.789-60.745-136.533-136.533-136.533h-170.667c-0.144 0.002-0.313 0.003-0.483 0.003-18.853 0-34.137-15.284-34.137-34.137s15.284-34.137 34.137-34.137c0.17 0 0.339 0.001 0.508 0.004h170.641c0.051 0 0.112 0 0.173 0 1.301 0 2.585 0.073 3.849 0.215l-0.155-0.014c110.909 2.099 200.933 93.21 200.933 204.6 0 7.125-0.411 14.128-1.133 21.067l54.133-17.267 87.667-156.733-0.067 0.267c5.904-10.714 17.124-17.851 30.011-17.851 18.862 0 34.153 15.291 34.153 34.153 0 3.801-0.621 7.458-1.767 10.873l0.070-0.241-68.267 204.8c-3.275 9.576-10.413 17.083-19.505 20.784l-0.228 0.082-133.8 53.533 11.867 35.267c1.605 3.567 3.109 7.85 4.268 12.273l0.132 0.594c-0.085-0.415-0.039-0.236 0.007-0.056l0.127 0.59 32.333 95.733-0.133 0.2c2.658 7.814 4.216 16.816 4.267 26.176v0.024c-0.018 45.66-35.896 82.935-80.998 85.192l-0.202 0.008c-1.127 0.132-2.433 0.207-3.757 0.207-0.25 0-0.498-0.003-0.747-0.008l0.037 0.001z" />
<glyph unicode="&#xe90d;" glyph-name="option-active" d="M1016.877 777.917l-136.064 119.574c-4.175 3.692-9.724 5.57-15.2 5.182-5.549-0.367-10.731-2.916-14.403-7.102l-493.506-561.691-175.475 232.256c-3.346 4.427-8.329 7.353-13.836 8.109-5.497 0.818-11.109-0.671-15.535-4.039l-144.529-109.179c-9.242-6.986-11.077-20.141-4.091-29.382l324.913-430.043c3.797-5.025 9.672-8.088 15.966-8.318 0.252 0 0.514 0 0.766 0 6.021 0 11.77 2.581 15.766 7.133l657.127 747.896c7.658 8.696 6.808 21.966-1.899 29.602z" />
<glyph unicode="&#xe90e;" glyph-name="option-help" d="M596.828 192.021h-192.005c-8.524 0-15.994-3.22-22.394-9.608-6.406-6.406-9.603-13.865-9.603-22.4v-192.013c0-8.535 3.208-16.006 9.603-22.4 6.4-6.386 13.862-9.6 22.394-9.6h192.005c8.524 0 16.014 3.206 22.389 9.6 6.417 6.394 9.62 13.865 9.62 22.4v192.013c0 8.535-3.194 15.994-9.62 22.4-6.375 6.406-13.865 9.608-22.389 9.608zM848.85 766.793c-21.873 40.288-50.132 74.272-84.808 102.013-34.653 27.729-73.614 49.874-116.805 66.401-43.2 16.521-86.131 24.793-128.806 24.793-162.126 0-285.858-70.935-371.198-212.807-4.262-6.93-5.733-14.394-4.402-22.397 1.339-7.992 5.472-14.661 12.405-19.993l131.205-100.009c6.932-4.259 13.601-6.392 20.004-6.392 9.603 0 17.863 4.273 24.804 12.806 38.394 47.994 66.933 78.66 85.598 92.001 22.938 15.462 51.729 23.19 86.397 23.19 32.532 0 61.192-8.535 86.002-25.589 24.798-17.070 37.186-36.805 37.186-59.205 0-25.056-6.655-45.332-19.993-60.8-13.33-15.462-35.738-30.389-67.211-44.794-41.589-18.665-79.739-47.602-114.39-86.803-34.676-39.204-52.001-80.938-52.001-125.203v-35.998c0-10.144 2.785-20.139 8.395-30.005 5.604-9.875 12.399-14.803 20.405-14.803h192.002c8.535 0 15.994 4.125 22.4 12.419 6.386 8.244 9.6 16.913 9.6 25.967 0 13.33 7.333 31.215 21.988 53.604 14.669 22.4 32.93 39.75 54.814 52.021 20.789 11.73 37.041 21.184 48.787 28.394 11.758 7.19 27.079 18.816 46.019 34.805 18.931 16.006 33.6 31.874 43.987 47.602 10.404 15.731 19.743 36.136 28.010 61.209 8.283 25.065 12.408 52.001 12.408 80.798-0.006 44.267-10.948 86.531-32.801 126.778z" />
<glyph unicode="&#xe90f;" glyph-name="text-align-left" d="M36.574 484.561h877.717c9.905 0 18.471 3.627 25.713 10.866 7.233 7.229 10.85 15.807 10.85 25.709v73.147c0 9.911-3.617 18.475-10.85 25.713-7.239 7.239-15.805 10.856-25.713 10.856h-877.717c-9.911 0-18.479-3.617-25.721-10.856-7.233-7.235-10.854-15.807-10.854-25.713v-73.147c0-9.901 3.621-18.479 10.856-25.709 7.245-7.239 15.815-10.866 25.719-10.866zM36.574 703.997h658.268c9.903 0 18.485 3.621 25.727 10.856 7.231 7.239 10.856 15.807 10.856 25.713v73.147c0 9.903-3.625 18.471-10.856 25.719-7.239 7.229-15.821 10.856-25.727 10.856h-658.268c-9.911 0-18.479-3.627-25.721-10.856-7.233-7.239-10.854-15.815-10.854-25.719v-73.147c0-9.903 3.621-18.471 10.856-25.713 7.245-7.235 15.815-10.856 25.719-10.856zM1013.142 181.145c-7.239 7.239-15.821 10.862-25.719 10.862h-950.849c-9.911 0-18.479-3.623-25.721-10.862-7.233-7.235-10.854-15.809-10.854-25.713v-73.145c0-9.903 3.621-18.477 10.856-25.727 7.247-7.225 15.819-10.85 25.721-10.85h950.849c9.895 0 18.477 3.625 25.719 10.85 7.233 7.247 10.858 15.821 10.858 25.727v73.145c-0.004 9.903-3.627 18.477-10.86 25.713zM36.574 265.141h731.425c9.903 0 18.479 3.625 25.713 10.864 7.239 7.233 10.864 15.807 10.864 25.713v73.137c0 9.897-3.625 18.479-10.864 25.713-7.231 7.239-15.807 10.864-25.713 10.864h-731.425c-9.911 0-18.479-3.625-25.721-10.864-7.233-7.233-10.854-15.815-10.854-25.713v-73.143c0-9.903 3.621-18.485 10.856-25.713 7.245-7.239 15.815-10.858 25.719-10.858z" />
<glyph unicode="&#xe910;" glyph-name="text-align-justify" d="M987.424 411.429h-950.849c-9.911 0-18.479-3.625-25.721-10.864-7.233-7.231-10.854-15.813-10.854-25.711v-73.143c0-9.903 3.621-18.485 10.856-25.713 7.247-7.239 15.819-10.872 25.721-10.872h950.849c9.895 0 18.477 3.631 25.719 10.872 7.233 7.225 10.858 15.807 10.858 25.713v73.143c0 9.897-3.625 18.479-10.858 25.713-7.243 7.245-15.825 10.862-25.721 10.862zM987.424 192.005h-950.849c-9.911 0-18.479-3.623-25.721-10.862-7.233-7.233-10.854-15.807-10.854-25.711v-73.145c0-9.903 3.621-18.477 10.856-25.727 7.247-7.225 15.819-10.85 25.721-10.85h950.849c9.895 0 18.477 3.625 25.719 10.85 7.233 7.247 10.858 15.821 10.858 25.727v73.145c0 9.903-3.625 18.477-10.858 25.713-7.243 7.239-15.825 10.86-25.721 10.86zM1013.142 839.431c-7.239 7.229-15.821 10.856-25.719 10.856h-950.849c-9.911 0-18.479-3.627-25.721-10.856-7.233-7.239-10.854-15.815-10.854-25.719v-73.147c0-9.903 3.621-18.471 10.856-25.713 7.247-7.237 15.819-10.856 25.721-10.856h950.849c9.895 0 18.477 3.621 25.719 10.856 7.233 7.239 10.858 15.807 10.858 25.713v73.147c-0.004 9.903-3.627 18.473-10.86 25.719zM987.424 630.851h-950.849c-9.911 0-18.479-3.617-25.721-10.856-7.233-7.235-10.854-15.807-10.854-25.713v-73.147c0-9.901 3.621-18.479 10.856-25.709 7.247-7.239 15.819-10.866 25.721-10.866h950.849c9.895 0 18.477 3.627 25.719 10.866 7.233 7.229 10.858 15.807 10.858 25.709v73.147c0 9.911-3.625 18.475-10.858 25.713-7.243 7.239-15.825 10.856-25.721 10.856z" />
<glyph unicode="&#xe911;" glyph-name="text-align-right" d="M987.424 192.005h-950.849c-9.911 0-18.479-3.623-25.721-10.862-7.233-7.233-10.854-15.807-10.854-25.711v-73.145c0-9.903 3.621-18.477 10.856-25.727 7.247-7.225 15.819-10.85 25.721-10.85h950.849c9.895 0 18.477 3.625 25.719 10.85 7.233 7.247 10.858 15.821 10.858 25.727v73.145c0 9.903-3.625 18.477-10.858 25.713-7.243 7.239-15.825 10.86-25.721 10.86zM987.424 411.429h-731.419c-9.911 0-18.479-3.625-25.719-10.864-7.241-7.231-10.856-15.813-10.856-25.713v-73.143c0-9.903 3.617-18.485 10.856-25.713 7.245-7.239 15.813-10.872 25.719-10.872h731.419c9.895 0 18.477 3.631 25.719 10.872 7.233 7.225 10.858 15.807 10.858 25.713v73.143c0 9.897-3.625 18.479-10.858 25.713-7.241 7.247-15.823 10.864-25.719 10.864zM987.424 630.851h-877.703c-9.911 0-18.483-3.617-25.719-10.856-7.239-7.235-10.856-15.807-10.856-25.713v-73.147c0-9.901 3.617-18.479 10.856-25.709 7.243-7.239 15.807-10.866 25.719-10.866h877.703c9.895 0 18.477 3.627 25.719 10.866 7.233 7.229 10.858 15.807 10.858 25.709v73.147c0 9.911-3.625 18.475-10.858 25.713-7.241 7.239-15.823 10.856-25.719 10.856zM1013.142 839.431c-7.239 7.229-15.821 10.856-25.719 10.856h-658.272c-9.911 0-18.483-3.627-25.719-10.856-7.239-7.239-10.86-15.815-10.86-25.719v-73.147c0-9.903 3.621-18.471 10.86-25.713 7.243-7.237 15.813-10.856 25.719-10.856h658.272c9.895 0 18.477 3.621 25.719 10.856 7.233 7.239 10.858 15.807 10.858 25.713v73.147c-0.002 9.903-3.625 18.473-10.858 25.719z" />
<glyph unicode="&#xe912;" glyph-name="text-align-center" d="M1023.998 155.432v-73.145c0-9.903-3.625-18.477-10.858-25.727-7.239-7.225-15.821-10.85-25.719-10.85h-950.847c-9.901 0-18.473 3.625-25.721 10.85-7.233 7.249-10.854 15.823-10.854 25.727v73.145c0 9.903 3.621 18.477 10.856 25.713 7.241 7.239 15.807 10.862 25.721 10.862h950.849c9.895 0 18.477-3.623 25.719-10.862 7.231-7.235 10.854-15.809 10.854-25.713zM256.004 411.429c-9.911 0-18.479-3.625-25.719-10.864-7.241-7.231-10.856-15.813-10.856-25.713v-73.143c0-9.903 3.617-18.485 10.856-25.713 7.245-7.239 15.813-10.872 25.719-10.872h511.995c9.903 0 18.479 3.631 25.713 10.872 7.239 7.225 10.864 15.807 10.864 25.713v73.143c0 9.897-3.625 18.479-10.864 25.713-7.231 7.239-15.807 10.864-25.713 10.864h-511.995zM109.721 484.561h804.558c9.905 0 18.479 3.627 25.715 10.866 7.231 7.229 10.848 15.807 10.848 25.709v73.147c0 9.911-3.617 18.475-10.848 25.713-7.233 7.239-15.807 10.856-25.715 10.856h-804.558c-9.911 0-18.483-3.617-25.719-10.856-7.239-7.235-10.856-15.807-10.856-25.713v-73.147c0-9.901 3.617-18.479 10.856-25.709 7.243-7.239 15.807-10.866 25.719-10.866zM329.151 703.997h365.692c9.903 0 18.485 3.621 25.727 10.856 7.231 7.239 10.856 15.807 10.856 25.713v73.147c0 9.903-3.625 18.471-10.842 25.719-7.245 7.229-15.821 10.856-25.727 10.856h-365.706c-9.911 0-18.483-3.627-25.719-10.856-7.239-7.239-10.86-15.815-10.86-25.719v-73.147c0-9.903 3.621-18.471 10.86-25.713 7.243-7.235 15.813-10.856 25.719-10.856z" />
<glyph unicode="&#xe913;" glyph-name="text-normal" d="M1020.312 26.467c-22.97 8.615-44.096 14.146-63.384 16.61-19.28 1.653-33.443 6.358-42.464 14.155-5.335 3.296-12.519 14.98-21.546 35.088-16.825 33.633-30.152 64.201-39.994 91.685-16.008 43.498-29.35 77.14-40.015 100.936-23.376 54.556-43.070 102.766-59.061 144.611-8.624 22.559-34.049 83.481-76.313 182.771l-126.152 295.376-6.772 12.924h-78.765l-172.304-445.533-145.846-379.082c-11.488-21.33-21.339-35.288-29.542-41.852-8.613-6.139-31.18-12.512-67.691-19.060-23.8-4.531-40.207-8.216-49.232-11.081l-1.231-48.635h12.924c35.284 0 69.542 2.875 102.768 8.615l29.542 4.912c116.108-8.204 187.698-12.303 214.77-12.303 0.821 4.1 1.231 9.648 1.231 16.61 0 12.318-0.203 24.207-0.619 35.7-8.613 1.224-16.922 2.464-24.919 3.688-7.999 1.239-14.155 2.257-18.461 3.084-4.304 0.804-7.078 1.224-8.309 1.224-31.592 4.513-52.722 11.079-63.384 19.688-6.975 4.919-10.462 13.741-10.462 26.464 0 8.204 4.72 25.425 14.155 51.691 30.773 85.734 52.101 141.947 63.999 168.605l276.934-1.224 56.621-140.309 28.906-70.139c2.466-6.986 3.688-13.542 3.688-19.696s-2.457-11.7-7.384-16.612c-4.925-4.106-18.866-8.822-41.852-14.146l-80.621-17.23c-1.645-13.542-2.449-29.534-2.449-48.003l35.694 1.239 123.081 6.764c22.968 0.819 50.674 1.239 83.085 1.239 39.367 0 78.136-1.645 116.3-4.919 45.938-3.283 85.329-4.921 118.158-4.921 0.414 4.921 0.606 10.247 0.606 16 0 7.376-1.226 19.058-3.688 35.066zM541.538 376.009c-5.746 0-16.515 0.112-32.308 0.31-15.793 0.192-40.196 0.502-73.226 0.916-33.023 0.42-64.512 0.826-94.459 1.237l104.613 276.922c16.002-32.411 34.87-75.692 56.61-129.847 24.626-59.899 43.494-109.338 56.629-148.312l-17.86-1.226z" />
<glyph unicode="&#xe914;" glyph-name="text-spacing-word" d="M944 738v-287.432l-204.492 204.492-56.57-56.568 108.494-108.492h-559.64l108.494 108.492-56.572 56.568-203.714-203.714v286.654h-80v-580h80v290.654l203.714-203.714 56.572 56.568-108.494 108.492h559.64l-108.494-108.492 56.57-56.568 204.492 204.492v-291.432h80v580z" />
<glyph unicode="&#xe915;" glyph-name="text-spacing-line" d="M802 960h-580v-80h287.432l-204.494-204.492 56.57-56.568 108.492 108.492v-559.64l-108.492 108.492-56.57-56.568 203.718-203.716h-286.656v-80h580v80h-290.656l203.718 203.716-56.57 56.568-108.492-108.492v559.64l108.492-108.492 56.57 56.568-204.494 204.492h291.432z" />
<glyph unicode="&#xe916;" glyph-name="colors-custom" d="M1003.311 837.142c-1.915 4.848-6.329 8.259-11.504 8.892-5.16 0.631-10.276-1.617-13.303-5.86-17.97-25.196-41.552-33.594-68.869-43.32-22.026-7.846-44.804-15.953-69.421-33.627-34.815-24.994-50.74-59.065-42.799-91.357l-0.849-1.088c-14.538 21.090-30.356 40.596-47.049 58.014-78.099 81.491-187.228 130.484-299.414 134.412-4.942 0.173-9.965 0.261-14.929 0.261-125.269 0-245.171-56-328.96-153.636-83.35-97.132-120.293-223.574-101.353-346.906 1.583-10.309 3.565-20.725 5.895-30.965 30.806-135.595 109.489-238.745 215.875-282.992 26.224-10.909 52.676-16.437 78.611-16.437 64.436 0 120.718 34.464 154.418 94.555 12.81 22.865 21.076 46.511 24.558 70.286 2.053 14.033 0.65 28.054-0.711 41.642-1.401 13.986-2.724 27.203-0.607 40.511 4.852 30.505 26.16 48.72 57.002 48.72 8.773 0 17.738-1.444 26.691-4.295-10.482-19.224-20.002-37.581-28.32-54.596-17.629-36.059-29.789-65.922-36.154-88.75-3.923-14.078-14.346-51.491 11.070-69.132 8.071-5.601 18.305-7.578 28.955-5.597 9.598 1.783 38.802 7.209 121.789 101.683 22.273 25.352 46.274 54.691 71.36 87.218 64.4 21.69 114.517 75.667 127.775 137.692 3.319 15.505 4.703 32.098 4.113 49.334 24.112 37.264 45.261 72.033 66.543 109.411 0.408 0.721 0.811 1.489 1.209 2.276 30.889 8.46 57.493 32.499 73.11 66.114 22.799 49.061 21.118 112.115-4.734 177.537zM655.158 604.826c-11.172-17.743-30.375-28.336-51.375-28.336-11.402 0-22.555 3.226-32.25 9.332-13.706 8.633-23.238 22.086-26.824 37.88s-0.818 32.044 7.818 45.752c11.174 17.743 30.38 28.336 51.38 28.336 11.404 0 22.555-3.226 32.248-9.335 13.706-8.628 23.235-22.081 26.824-37.877 3.586-15.797 0.811-32.044-7.82-45.752zM733.873 494.948c30.659 45.174 63.082 90.077 93.879 130.019 4.992-4.509 10.575-8.913 16.622-13.109 10.020-6.953 20.5-12.329 31.205-16.010-26.001-44.465-53.959-88.517-87.809-138.375-55.618-81.949-113.447-158.071-162.838-214.346-27.587-31.432-51.73-55.701-70.334-70.732 7.18 22.97 20.903 54.494 40.001 91.846 34.151 66.792 83.613 148.725 139.274 230.707zM195.577 495.337c-11.404 0-22.557 3.226-32.255 9.335-13.706 8.631-23.233 22.078-26.822 37.877-3.589 15.797-0.811 32.046 7.825 45.754 11.167 17.74 30.373 28.334 51.37 28.334 11.407 0 22.56-3.226 32.255-9.335 28.294-17.821 36.818-55.338 19.009-83.627-11.179-17.745-30.387-28.339-51.382-28.339zM132.006 361.797c11.172 17.745 30.375 28.339 51.375 28.339 11.402 0 22.552-3.229 32.252-9.335 13.706-8.631 23.233-22.081 26.822-37.877 3.591-15.792 0.813-32.039-7.825-45.752-11.167-17.738-30.373-28.334-51.37-28.334-11.404 0-22.56 3.226-32.259 9.335-13.706 8.633-23.23 22.081-26.817 37.877-3.584 15.792-0.804 32.041 7.822 45.747zM326.222 721.973c11.172 17.743 30.377 28.336 51.375 28.336 11.4 0 22.552-3.226 32.248-9.332 28.296-17.816 36.82-55.336 19.009-83.63-11.177-17.745-30.382-28.339-51.38-28.339-11.402 0-22.555 3.226-32.25 9.335-13.704 8.628-23.228 22.078-26.817 37.877-3.594 15.794-0.815 32.041 7.815 45.752z" />
<glyph unicode="&#xe917;" glyph-name="localize-logo" horiz-adv-x="3712" d="M2497.883 740.462c-2.511-0.437-6.878-2.183-9.498-3.712-7.205-4.258-8.297-8.733-8.952-37.663-0.546-24.563 0.983-77.946 3.603-126.090 2.62-48.252 4.148-94.322 3.493-109.168-1.092-27.947-4.694-30.13-36.79-21.288-28.82 7.86-41.157 7.096-48.689-2.729-2.948-3.93-3.166-5.022-3.493-15.393-0.546-13.646 1.638-28.056 7.533-52.073 9.498-38.427 22.38-79.693 36.244-115.391 22.161-57.204 37.554-89.081 48.034-99.125 7.533-7.314 14.519-2.838 17.030 10.917 0.764 3.821 1.965 28.82 2.838 55.676 1.638 51.309 2.62 60.043 7.205 66.484 2.729 3.821 7.423 6.441 11.572 6.441 1.747 0 11.681-4.258 22.925-10.043 21.615-10.917 26.31-12.118 33.842-8.188 9.061 4.803 11.244 15.939 14.083 73.798 3.493 69.213 0 193.010-7.751 278.489-4.913 53.165-8.733 70.85-17.576 80.785-17.467 19.323-53.165 32.751-75.654 28.275zM1705.102 737.951c-22.052-6.332-43.667-28.493-63.973-65.61-33.406-60.916-63.209-139.517-85.916-226.634-16.703-64.082-30.021-139.845-26.855-153.163 1.201-5.349 7.533-11.899 14.738-15.393 9.388-4.694 25.982-8.297 40.501-8.952 22.816-1.092 41.047 3.712 46.833 12.336 1.31 1.965 4.694 12.445 7.533 23.471 8.843 33.951 14.629 49.89 19.978 54.693 6.441 5.786 50.654 10.043 78.71 7.533 24.89-2.293 36.571-5.786 40.501-12.227 1.201-1.856 4.367-12.664 7.096-24.126 5.458-22.052 8.078-30.021 13.646-41.047 6.332-12.554 15.829-15.829 46.506-15.939 22.489 0 35.916 2.074 46.397 7.314 9.17 4.476 10.043 6.768 9.279 22.598-2.402 45.414-19.65 130.456-41.375 203.708-18.886 63.754-32.751 100.435-55.239 146.177-25.109 50.982-43.777 73.907-67.903 83.623-7.205 2.948-23.144 3.821-30.458 1.638zM1738.398 635.333c1.965-0.764 4.694-2.838 6.004-4.585 2.183-2.729 2.402-4.039 1.856-9.17-0.328-3.275-2.074-11.135-3.93-17.467-4.585-16.048-4.367-19.541 1.31-22.489 2.729-1.419 4.694-1.528 13.755-0.437 15.174 1.856 22.38 1.638 25.764-0.546 8.406-5.568 7.096-14.847-6.987-48.034-23.035-54.366-57.641-111.898-67.139-111.898-2.62 0-4.913 6.659-4.913 14.083 0 3.493 0.983 17.904 2.183 31.986 2.293 27.401 1.965 32.641-2.293 36.135-3.166 2.511-3.93 2.402-15.502-2.074-14.083-5.568-17.904-5.895-22.27-1.856-4.694 4.476-5.458 11.354-3.166 30.676s6.004 37.226 11.681 55.785c9.17 30.676 13.864 38.318 28.056 45.414 10.917 5.458 28.056 7.642 35.589 4.476zM289.187 734.567c-17.249-2.838-33.406-9.279-41.047-16.266-6.441-5.786-8.733-12.118-11.135-31.441-5.568-42.903-12.664-147.814-15.393-223.031-2.729-80.566-3.712-139.626-2.402-160.478 1.638-25.982 2.183-28.165 8.188-31.441 4.367-2.293 5.895-2.402 26.419-2.402 12.009 0 30.895 0.328 42.030 0.873 31.113 1.201 31.55 0.873 28.82-25.545-2.838-27.51-0.328-41.157 9.17-48.907 9.934-8.297 29.475-6.768 80.457 6.113 79.802 20.087 159.713 49.562 177.29 65.392 5.786 5.24 6.987 8.843 4.476 13.646-3.057 5.677-24.017 11.135-76.964 20.087-44.213 7.423-53.165 10.153-57.859 17.358-3.821 5.677-2.62 11.244 5.895 28.275 4.258 8.624 8.406 18.449 9.061 21.725 1.092 5.24 0.983 6.441-0.873 10.153-4.039 8.188-5.677 8.733-27.51 8.624-10.589-0.109-25.218-0.764-32.423-1.419-40.065-3.93-73.252-5.349-80.239-3.384-6.441 1.747-7.642 3.275-8.843 11.354-1.856 11.572 1.31 53.056 12.664 169.866 3.603 36.899 6.55 73.143 9.388 114.19 1.419 21.615 0.983 44.541-1.092 48.252-4.476 8.188-34.061 12.445-58.078 8.406zM2049.965 734.567c-14.738-2.511-30.24-8.297-38.755-14.519-9.607-7.096-11.681-14.41-15.611-54.803-12.991-133.95-20.524-368.116-12.445-389.186 0.437-0.983 2.729-2.838 5.24-4.148 4.148-2.293 5.895-2.402 26.31-2.402 12.009 0 30.895 0.328 42.030 0.873 31.768 1.31 31.55 1.419 29.039-26.855-2.729-29.366-0.218-41.157 10.48-48.362 6.332-4.258 12.554-5.131 26.091-3.712 14.301 1.419 25.218 3.603 52.401 10.371 55.894 13.974 101.963 29.148 145.412 47.816 26.091 11.135 40.065 21.288 38.427 27.838-2.293 9.279-12.445 12.336-75.654 23.144-49.235 8.515-56.768 10.808-60.916 18.668-2.948 5.895-1.638 12.336 5.786 26.855 8.078 15.72 10.699 23.69 9.716 29.039-1.092 5.568-5.349 10.262-10.808 11.79-5.349 1.528-30.895 0.764-55.894-1.638-26.419-2.511-57.75-4.258-66.811-3.712-9.825 0.655-13.755 2.183-15.502 6.113-1.856 3.821-1.528 30.458 0.437 54.803 2.402 28.493 7.642 86.352 11.463 125.544 8.733 90.391 11.79 146.286 8.406 156.111-1.092 3.057-2.511 4.367-7.314 6.768-10.262 5.022-33.296 6.659-51.528 3.603zM2781.066 735.441c-33.078-1.201-81.221-5.895-87.553-8.515-4.367-1.856-8.188-8.406-11.244-19.104-5.786-20.633-2.948-62.772 4.803-72.597 3.384-4.148 11.026-4.913 37.772-3.493 12.336 0.655 39.301 1.201 60.043 1.201 36.244 0.109 37.881 0 43.122-2.293 5.24-2.183 5.458-2.511 5.349-6.55-0.109-7.86-22.052-49.672-59.933-114.409-18.122-31.113-44.322-80.675-57.859-109.714-22.38-48.034-34.606-84.606-37.117-111.133-1.31-13.209 2.183-17.358 16.594-20.414 8.733-1.856 52.838-2.183 71.833-0.546 28.056 2.402 65.829 4.476 70.414 3.821 12.773-1.965 13.537-5.131 5.458-25.545-6.987-17.904-9.061-26.2-8.515-34.17 0.437-5.786 0.873-6.878 5.022-11.026 4.476-4.476 4.803-4.585 13.1-4.913 15.72-0.764 45.196 5.677 98.907 21.725 38.427 11.463 86.025 29.475 111.243 42.030 19.541 9.716 26.965 15.065 26.965 19.541 0 7.533-15.174 11.681-74.78 20.087-20.96 3.057-40.829 6.223-43.886 7.205-8.297 2.511-11.572 5.568-11.463 11.135s1.419 8.624 11.463 27.292c15.174 28.056 15.065 31.659-0.109 34.279-3.493 0.546-29.039 1.31-56.986 1.528-64.628 0.546-79.038 2.183-84.278 9.388-2.074 2.729-2.074 2.838 0.655 11.463 3.821 11.899 13.755 31.222 56.877 110.151 74.999 137.552 95.195 181.438 91.811 199.56-1.31 7.205-8.843 12.227-24.126 16.157-9.061 2.402-38.864 5.895-63.318 7.533-15.393 0.983-86.68 1.201-110.26 0.328zM1272.358 733.912c-3.603-0.546-10.371-1.965-15.174-3.166-66.156-17.139-118.229-76.2-138.753-157.312-6.55-25.545-7.642-36.026-7.642-72.488 0-37.117 1.092-47.161 8.188-74.78 19.104-75.217 66.593-131.766 127.4-151.635 20.087-6.659 31.55-8.188 56.331-7.423 15.284 0.437 23.799 1.201 31.55 2.838 35.152 7.642 66.811 25.545 96.832 55.021 15.939 15.502 26.31 31.222 26.31 39.519-0.109 14.738-33.733 51.309-53.383 58.187-8.515 2.948-11.572 1.528-25.218-11.79-16.812-16.266-28.711-25.218-44.213-33.078-9.934-5.022-17.467-7.096-29.585-8.515-18.886-2.074-33.078 3.166-47.488 17.685-13.974 13.974-21.834 27.838-29.694 51.746-6.768 20.742-9.498 39.191-9.498 63.973 0 56.658 27.401 111.679 62.554 125.762 7.314 2.948 26.855 3.057 38.427 0.328 15.829-3.821 35.043-15.502 46.942-28.82 6.441-7.096 14.192-12.227 18.559-12.227 4.039 0 18.668 6.878 28.056 13.209 8.843 6.113 23.908 20.524 28.165 27.183 1.856 2.948 3.603 6.987 4.039 8.952 1.965 12.773-24.017 44.213-56.44 67.903-15.065 11.135-48.471 24.89-69.213 28.493-10.48 1.747-35.916 2.074-47.052 0.437zM3277.783 734.349c-18.122-0.437-50.217-2.402-68.776-4.258-35.589-3.384-57.641-8.297-64.628-14.301-5.786-5.022-8.733-17.904-11.463-49.999-1.856-21.179-1.856-167.355 0-211.787 3.712-88.536 7.205-147.377 10.043-167.574 1.092-7.969 3.493-10.917 10.699-13.209 2.62-0.873 18.34-1.528 45.523-1.965 38.536-0.655 41.812-0.764 45.851-2.838 3.057-1.528 4.803-3.275 5.895-6.223 1.528-4.039 1.419-4.258-5.786-19.214-8.515-17.685-9.388-22.816-4.694-28.93 3.603-4.803 8.297-6.987 17.139-7.86 36.462-3.712 182.42 29.475 224.123 51.091 9.498 4.803 12.336 7.969 11.244 12.336-1.31 5.022-14.41 8.733-45.96 12.991-59.278 7.86-69.213 9.716-78.165 14.192-5.677 2.948-6.441 4.148-6.441 10.808 0 4.258 0.983 5.895 9.825 17.139 20.96 26.419 23.799 42.794 8.406 46.942-6.987 1.856-33.187 3.166-66.811 3.166-30.676 0-43.667 0.764-56.222 3.384-10.808 2.183-15.829 9.607-19.759 28.82-2.729 14.083-0.764 35.261 4.039 42.576 2.402 3.712 7.642 6.768 15.174 8.733 5.24 1.31 14.083 1.638 46.942 1.638 33.078 0 41.593 0.328 46.178 1.638 10.808 3.275 15.829 13.646 18.013 37.445 1.092 11.681 0.983 15.065-0.655 24.454-2.293 13.428-5.131 19.214-11.135 22.161-4.148 2.074-6.55 2.183-47.488 2.183-47.707 0-52.073 0.437-60.807 6.332-9.825 6.55-15.284 22.161-14.192 40.501 0.983 17.249 6.441 27.183 16.921 31.441 5.677 2.183 8.624 2.402 31.331 2.838 13.864 0.328 42.357-0.218 63.318-0.983 21.070-0.873 49.999-1.528 64.409-1.528 24.017 0 26.528 0.218 30.567 2.183 5.677 2.838 8.515 7.314 11.463 18.122 5.24 19.432 5.349 44.868 0.218 60.261-4.258 12.664-10.262 18.231-22.598 20.851-24.345 5.131-92.902 8.078-151.744 6.441zM836.012 731.729c-48.798-5.677-97.16-39.737-127.509-89.955-22.707-37.554-35.698-80.457-38.1-125.435-3.057-59.278 9.17-112.007 36.899-158.84 16.594-28.056 35.698-48.362 61.462-65.501 52.51-35.043 116.592-35.261 169.866-0.546 43.231 28.165 76.090 77.51 91.374 137.443 6.768 26.419 7.642 34.606 7.642 70.959 0 29.475-0.218 34.17-2.511 46.724-14.738 81.767-60.37 147.050-121.395 173.905-23.471 10.262-51.091 14.301-77.728 11.244zM878.697 644.394c6.223-1.31 11.354-4.476 14.629-8.843 3.821-5.131 2.948-11.244-6.223-42.357-4.585-15.393-4.367-19.65 1.31-24.126 2.729-2.183 3.712-2.293 14.41-1.638 34.825 2.074 39.628 2.074 43.449-0.328 4.585-2.948 7.86-8.406 7.86-13.209 0-14.629-17.467-59.933-41.047-106.439-24.454-48.362-53.165-94.212-64.3-102.728-7.969-6.113-13.646-0.764-13.646 12.664 0.109 7.096 1.31 22.925 5.022 65.064 1.638 18.34 1.747 22.816 0.546 26.637-3.384 11.463-9.825 12.554-29.366 4.694-15.065-6.004-22.052-6.987-27.183-3.712-6.987 4.367-7.423 6.113-7.314 27.401 0.109 22.052 2.511 38.318 10.808 71.614 10.48 42.357 21.288 69.431 31.331 78.492 14.629 13.209 41.484 20.742 59.715 16.812zM1300.196 579.439c-0.873-0.437-2.729-1.747-4.039-2.948-3.057-2.729-3.166-5.786-0.655-20.524 1.747-10.917 1.747-10.917-0.546-13.319-2.293-2.293-2.293-2.293-11.899-0.328-12.882 2.62-18.559 2.074-21.397-1.747-2.074-2.838-2.183-3.603-0.983-11.244 1.638-10.48 12.227-42.685 20.414-61.68 15.72-36.681 24.345-48.907 27.947-39.519 0.655 1.638 1.528 13.537 1.965 26.419 0.437 15.284 1.201 24.345 2.074 25.982 1.965 3.493 6.441 3.057 15.502-1.638 9.061-4.803 12.445-4.367 15.502 1.856 4.803 9.388-0.218 59.606-7.86 79.911-2.838 7.533-8.515 12.882-17.358 16.266-6.332 2.402-15.829 3.603-18.668 2.511z" />
<glyph unicode="&#xe918;" glyph-name="colors-filter-grayscale" d="M512 753.2c-195.646 0-373.068-107.040-503.988-280.901-10.683-14.244-10.683-34.144 0-48.388 130.92-174.071 308.342-281.11 503.988-281.11s373.068 107.040 503.988 280.901c10.683 14.244 10.683 34.144 0 48.388-130.92 174.071-308.342 281.11-503.988 281.11zM526.035 233.083c-129.872-8.169-237.121 98.87-228.952 228.952 6.703 107.249 93.634 194.18 200.883 200.883 129.872 8.169 237.121-98.87 228.952-228.952-6.913-107.040-93.843-193.97-200.883-200.883zM519.541 332.372c-69.963-4.399-127.777 53.206-123.169 123.169 3.561 57.814 50.483 104.526 108.297 108.297 69.963 4.399 127.777-53.206 123.169-123.169-3.77-58.024-50.692-104.736-108.297-108.297z" />
<glyph unicode="&#xe919;" glyph-name="colors-filter-saturate" d="M407.313 542.367c-6.234 25.836-9.555 52.789-9.555 80.508 0 97.43 40.813 185.508 106.234 248.039-52.867 40.789-119.078 65.086-190.867 65.086-172.656 0-313.125-140.469-313.125-313.125 0-136.25 87.484-252.43 209.219-295.375 29.25 98.484 103.125 177.961 198.094 214.867zM1024 622.875c0 156.078-126.977 283.055-283.055 283.055-156.070 0-283.047-126.977-283.047-283.055 0-21.984 2.516-43.383 7.281-63.938 20.047 3.797 40.719 5.813 61.852 5.813 139.484 0 259.102-86.602 307.961-208.844 109.984 38.859 189.008 143.852 189.008 266.969zM527.039 504.609c-149.617 0-271.344-121.719-271.344-271.336 0-149.625 121.727-271.344 271.344-271.344s271.336 121.719 271.336 271.344c0 149.609-121.727 271.336-271.336 271.336z" />
<glyph unicode="&#xe91a;" glyph-name="colors-filter-living-colors" d="M1007.086 567.076c-18.576 13.935-44.936 10.168-58.869-8.41l-51.462-68.617h-120.708l-44.338 118.235 46.682 46.682 81.050-32.421c21.746-8.694 46.11 2.044 54.662 23.426 8.626 21.564-1.864 46.036-23.426 54.66l-47.583 19.033 40.345 40.345c16.42 16.422 16.422 43.046 0 59.468-16.424 16.422-43.046 16.422-59.47 0l-40.343-40.343-19.033 47.585c-8.626 21.564-33.092 32.053-54.66 23.426-21.564-8.624-32.053-33.098-23.426-54.66l32.419-81.052-46.684-46.682-118.233 44.338v120.706l68.617 51.462c18.578 13.935 22.345 40.293 8.41 58.871-13.933 18.576-40.287 22.345-58.869 8.41l-60.207-45.155-60.207 45.155c-18.578 13.933-44.936 10.168-58.869-8.41-13.935-18.58-10.168-44.936 8.41-58.871l68.617-51.462v-120.706l-118.233-44.338-46.684 46.682 32.419 81.052c8.626 21.562-1.864 46.036-23.426 54.66-21.568 8.63-46.036-1.864-54.66-23.426l-19.033-47.585-40.351 40.347c-16.422 16.422-43.048 16.422-59.47 0s-16.42-43.048 0-59.468l40.345-40.345-47.583-19.033c-21.564-8.626-32.053-33.098-23.426-54.66 8.584-21.46 33.004-32.089 54.662-23.426l81.050 32.421 46.682-46.682-44.338-118.235h-120.71l-51.462 68.617c-13.933 18.576-40.291 22.345-58.869 8.41-18.578-13.933-22.345-40.293-8.41-58.871l45.155-60.205-45.155-60.205c-13.935-18.578-10.168-44.936 8.41-58.871 18.494-13.873 44.874-10.252 58.869 8.41l51.462 68.617h120.708l44.338-118.235-46.684-46.688-81.050 32.421c-21.576 8.626-46.038-1.864-54.662-23.426-8.626-21.564 1.864-46.036 23.426-54.66l47.583-19.033-40.345-40.345c-16.42-16.422-16.422-43.046 0-59.468 16.422-16.42 43.044-16.424 59.47 0l40.343 40.343 19.033-47.585c8.582-21.458 32.996-32.091 54.66-23.426 21.564 8.624 32.053 33.098 23.426 54.66l-32.419 81.052 46.684 46.682 118.233-44.338v-120.706l-68.617-51.462c-18.578-13.935-22.345-40.293-8.41-58.871s40.291-22.345 58.869-8.41l60.207 45.155 60.207-45.155c18.494-13.871 44.874-10.252 58.869 8.41 13.935 18.58 10.168 44.936-8.41 58.871l-68.617 51.462v120.706l118.233 44.338 46.684-46.682-32.419-81.052c-11.067-27.663 9.423-57.684 39.029-57.678 16.688 0 32.481 10.004 39.057 26.446l19.033 47.585 40.343-40.343c8.212-8.212 18.975-12.317 29.736-12.317 37.145 0 56.284 45.235 29.736 71.785l-40.345 40.345 47.583 19.033c21.564 8.626 32.053 33.098 23.426 54.66-8.624 21.562-33.096 32.051-54.662 23.426l-81.050-32.421-46.682 46.682 44.338 118.235h120.708l51.462-68.617c8.262-11.015 20.887-16.822 33.673-16.822 33.985 0.004 54.684 39.181 33.607 67.285l-45.155 60.205 45.155 60.205c13.945 18.578 10.178 44.936-8.4 58.869zM511.954 405.282c-23.592 0-42.718 19.125-42.718 42.718s19.125 42.718 42.718 42.718 42.718-19.125 42.718-42.718-19.125-42.718-42.718-42.718z" />
<glyph unicode="&#xe91c;" glyph-name="accessibility-statement" d="M512 316.776v390.504c-11.071-1.024-22.015-2.752-33.15-3.264h-318.828c-17.663 0-31.998-14.335-31.998-31.998v-31.998h-95.994c-17.663 0-31.998-14.335-31.998-31.998v-191.988c0-17.663 14.335-31.998 31.998-31.998h95.994v-31.998c0-17.663 14.335-31.998 31.998-31.998h19.391l128.632-342.891c7.872-20.543 25.47-35.454 47.101-39.806 4.288-0.896 8.575-1.344 12.799-1.344 17.087 0 33.342 6.784 44.989 18.943l76.859 76.219c19.647 19.647 24.318 50.301 11.775 74.043l-107.385 214.835h84.987c11.007-0.512 21.887-2.24 32.83-3.264zM1018.72 944.513c-0.64 1.088-1.216 1.984-2.048 3.008-3.52 4.48-7.936 8.127-13.375 10.239-0.192 0.064-0.32 0.32-0.512 0.384-0.64 0.192-1.216-0.128-1.856 0.064-2.88 0.832-5.76 1.792-8.959 1.792-2.176 0-4.096-0.832-6.208-1.28-1.216-0.256-2.368-0.32-3.584-0.704-5.504-1.792-10.239-4.864-14.015-9.087-0.256-0.256-0.64-0.32-0.896-0.576-99.77-121.144-238.897-202.163-391.272-231.858v-408.998c152.374-29.694 291.502-110.649 391.272-231.794 0.256-0.32 0.704-0.448 1.024-0.832 2.24-2.496 4.992-4.48 7.936-6.144 0.96-0.576 1.728-1.408 2.688-1.856 4.032-1.728 8.383-2.816 13.055-2.816 3.648 0 7.232 0.64 10.815 1.856 0.192 0.064 0.32 0.32 0.512 0.384 5.44 2.112 9.855 5.696 13.375 10.239 0.768 1.024 1.344 1.92 2.048 3.008 3.072 4.928 5.248 10.367 5.248 16.511v831.948c0 6.144-2.176 11.583-5.248 16.511z" />
<glyph unicode="&#xe91d;" glyph-name="option-reset" d="M116.271 532.012c32.921 0 62.657 19.766 75.391 50.133 52.578 125.268 176.209 213.551 320.338 213.551 79.437 0 152.264-27.227 210.651-72.386l-45.764-7.085c-15.632-2.423-27.793-14.825-29.911-30.5-2.123-15.666 6.322-30.865 20.737-37.343l251.667-113.222c11.032-4.954 23.812-4.002 33.98 2.533 10.151 6.545 16.317 17.776 16.385 29.861l1.305 277.302c0.088 15.775-10.195 29.726-25.271 34.325-15.101 4.598-31.414-1.238-40.15-14.369l-34.688-52.132c-92.484 91.040-219.211 147.319-358.941 147.319-211.868 0-394.027-129.383-471.717-313.276-10.79-25.489-8.070-54.675 7.207-77.735 15.277-23.068 41.1-36.977 68.782-36.977zM976.513 327.009c-15.279 23.070-41.105 36.977-68.784 36.977-32.921 0-62.657-19.766-75.391-50.133-52.58-125.268-176.211-213.551-320.338-213.551-79.439 0-152.266 27.227-210.655 72.386l45.766 7.081c15.63 2.423 27.79 14.827 29.913 30.504 2.121 15.664-6.322 30.865-20.737 37.343l-251.667 113.222c-11.034 4.952-23.812 4.004-33.982-2.533-10.149-6.545-16.317-17.776-16.383-29.859l-1.307-277.302c-0.088-15.775 10.193-29.726 25.271-34.325 15.101-4.598 31.416 1.24 40.15 14.373l34.688 52.132c92.482-91.045 219.211-147.323 358.941-147.323 211.872 0 394.024 129.381 471.713 313.274 10.796 25.489 8.077 54.673-7.198 77.735z" />
<glyph unicode="&#xe921;" glyph-name="option-add" d="M903.534 569.905h-269.629v269.629c0 66.243-55.637 120.466-121.905 120.466s-121.905-54.223-121.905-120.466v-269.629h-269.629c-66.243 0-120.466-55.637-120.466-121.905s54.223-121.905 120.466-121.905h269.629v-269.629c0-66.243 55.637-120.466 121.905-120.466s121.905 54.223 121.905 120.466v269.629h269.629c66.243 0 120.466 55.637 120.466 121.905s-54.223 121.905-120.466 121.905z" />
<glyph unicode="&#xe922;" glyph-name="option-subtract" d="M903.534 569.905h-783.067c-66.243 0-120.466-55.637-120.466-121.905s54.223-121.905 120.466-121.905h783.067c66.243 0 120.466 55.637 120.466 121.905s-54.223 121.905-120.466 121.905z" />
<glyph unicode="&#xe924;" glyph-name="widget-toggle-all" d="M511.95-47.404l-487.556 487.489c-32.559 32.559-32.559 85.314 0 117.806 32.626 32.526 85.347 32.559 117.806 0l369.749-369.716 369.782 369.716c32.593 32.559 85.314 32.559 117.773 0 32.593-32.626 32.626-85.381 0-117.806l-487.556-487.489zM999.506 801.203c32.626 32.593 32.626 85.347 0 117.806-32.559 32.559-85.281 32.559-117.773 0l-369.749-369.749-369.749 369.782c-32.626 32.559-85.314 32.559-117.806 0-32.526-32.593-32.559-85.314 0-117.806l487.622-487.589 487.456 487.556z" />
<glyph unicode="&#xe925;" glyph-name="widget-toggle-menu" d="M999.572 620.644l-487.589-487.522-487.556 487.489c-32.559 32.593-32.559 85.347 0 117.84 32.559 32.559 85.281 32.526 117.84 0l369.749-369.682 369.816 369.716c32.559 32.526 85.281 32.526 117.806 0 32.493-32.559 32.493-85.281-0.067-117.84z" />
<glyph unicode="&#xe926;" glyph-name="widget-close" d="M685.381 448l302.693 302.668c47.894 47.894 47.894 125.535 0 173.405-47.845 47.87-125.535 47.87-173.381 0l-302.693-302.717-302.693 302.717c-47.845 47.87-125.535 47.87-173.381 0-47.894-47.894-47.894-125.535 0-173.405l302.668-302.668-302.668-302.668c-47.894-47.894-47.894-125.535 0-173.405 23.91-23.959 55.325-35.902 86.69-35.902 31.341 0 62.78 11.943 86.69 35.902l302.693 302.668 302.693-302.693c23.935-23.959 55.325-35.902 86.69-35.902s62.78 11.943 86.69 35.902c47.894 47.894 47.894 125.535 0 173.405l-302.693 302.693z" />
<glyph unicode="&#xe927;" glyph-name="widget-off" d="M512.052 960c-49.632 0-90.008-40.376-90.008-90.008v-362.032c0-49.632 40.376-90.008 90.008-90.008s90.008 40.376 90.008 90.008v362.032c0 49.632-40.376 90.008-90.008 90.008zM813.25 722.082c-37.878 34.166-93.004 30.28-126.082-3.746-33.264-34.218-35.834-92.172 6.306-130.592 66.88-60.79 100.686-152.918 84.672-245.856-21.736-126.134-131.434-225.534-266.1-225.83-137.942-0.304-243.618 101.54-265.416 221.234-16.994 93.494 14.358 187.106 83.944 250.394 42.020 38.254 39.826 96.464 6.468 130.72-33.134 34.026-88.59 37.702-126.8 3.12-105.818-95.846-161.054-237.538-145.686-381.16 24.436-228.356 217.244-404.366 448.55-404.366 228.652 0 415.868 176.432 444.736 389.486 20.128 148.46-33.928 296.716-144.592 396.596z" />
<glyph unicode="&#xe92a;" glyph-name="display-images-only" d="M266.647 169.337c-68.306 0-129.066 43.735-151.129 108.846l-1.492 4.906c-5.203 17.243-7.383 31.743-7.383 46.251v290.913l-103.51-345.524c-13.313-50.822 17.024-103.51 67.924-117.55l659.774-176.692c8.235-2.133 16.469-3.156 24.579-3.156 42.493 0 81.322 28.204 92.205 69.767l38.438 122.237zM383.986 617.348c47.064 0 85.33 38.274 85.33 85.338s-38.267 85.338-85.33 85.338-85.338-38.274-85.338-85.338 38.274-85.338 85.338-85.338zM917.327 916.027h-640.016c-58.791 0-106.667-47.876-106.667-106.674v-469.34c0-58.798 47.876-106.674 106.667-106.674h640.016c58.798 0 106.674 47.876 106.674 106.674v469.34c0 58.798-47.876 106.674-106.674 106.674zM277.311 830.689h640.016c11.782 0 21.336-9.555 21.336-21.336v-302.898l-134.785 157.277c-14.297 16.766-34.993 25.727-57.22 26.235-22.102-0.125-42.837-9.938-57.001-26.923l-158.473-190.208-51.626 51.501c-29.18 29.18-76.674 29.18-105.815 0l-117.761-117.722v402.736c0 11.782 9.555 21.336 21.329 21.336z" />
<glyph unicode="&#xe92b;" glyph-name="display-text-only" d="M980.664 842.664c0 64.813-52.523 117.336-117.328 117.336h-490.672c-64.805 0-117.328-52.523-117.328-117.336v-576c0-64.805 52.523-117.328 117.328-117.328h490.672c64.805 0 117.328 52.523 117.328 117.328zM778 341.336h-320c-17.664 0-32 14.336-32 32s14.336 32 32 32h320c17.664 0 32-14.336 32-32s-14.336-32-32-32zM778 469.336h-320c-17.664 0-32 14.336-32 32s14.336 32 32 32h320c17.664 0 32-14.336 32-32s-14.336-32-32-32zM778 597.336h-320c-17.664 0-32 14.336-32 32s14.336 32 32 32h320c17.664 0 32-14.336 32-32s-14.336-32-32-32zM372.664 85.336c-100.008 0-181.328 81.359-181.328 181.328v576c0 3.672 0.852 7.086 1.063 10.672h-33.063c-64.727 0-117.336-52.609-117.336-117.336v-682.664c0-64.727 52.609-117.336 117.336-117.336h512c64.727 0 117.328 52.609 117.328 117.336v32z" />
<glyph unicode="&#xe92c;" glyph-name="navigation-quick" d="M512.017 960c-282.318 0-512-229.682-512-512s229.682-512 512-512c282.301 0 511.967 229.682 511.967 512s-229.666 512-511.967 512zM765.085 668.335l-162.15-301.302c-2.221-4.129-5.607-7.531-9.752-9.761l-301.286-162.125c-3.584-1.924-7.482-2.857-11.363-2.857-6.218 0-12.362 2.403-16.978 7.027-7.498 7.49-9.191 19.018-4.17 28.349l162.117 301.278c2.23 4.137 5.624 7.539 9.761 9.761l301.319 162.134c9.331 5.029 20.843 3.328 28.349-4.162 7.482-7.498 9.191-19.009 4.154-28.341zM512.495 503.79c-30.884 0-55.914-25.005-55.914-55.889 0-30.876 25.038-55.922 55.914-55.922 30.851 0 55.889 25.046 55.889 55.922 0 30.884-25.038 55.889-55.889 55.889z" />
<glyph unicode="&#xe92d;" glyph-name="widget-no-microphone" d="M157.533 526.769v-78.78c0-68.783 17.454-130.765 52.284-185.977l57.56 57.558c-20.7 38.589-31.074 81.384-31.074 128.407v78.78c0 10.649-3.911 19.88-11.692 27.694-7.803 7.79-17.032 11.679-27.694 11.679-10.673 0-19.902-3.889-27.694-11.679-7.803-7.803-11.69-17.034-11.69-27.683zM708.93 763.067c0 54.156-19.294 100.511-57.846 139.087-38.576 38.565-84.933 57.846-139.089 57.846s-100.524-19.281-139.076-57.835c-38.565-38.587-57.848-84.931-57.848-139.087v-315.088c0-24.512 4.156-47.329 12.058-68.653l381.789 381.789v1.939h0.013zM651.082 308.902c38.553 38.553 57.846 84.931 57.846 139.087v78.049l-263.623-263.614c20.767-7.424 42.931-11.346 66.69-11.346 54.156-0.011 100.513 19.246 139.087 57.824zM827.083 566.142c-10.673 0-19.902-3.889-27.694-11.681-7.803-7.812-11.69-17.043-11.69-27.692v-78.78c0-75.908-26.984-140.838-80.919-194.786-53.957-53.944-118.885-80.908-194.784-80.908-46.312 0-88.509 10.097-126.642 30.174l-57.692-57.689c43.186-26.564 91.481-42.879 144.95-48.783v-81.25h-157.542c-10.673 0-19.904-3.87-27.694-11.681-7.803-7.792-11.692-17.021-11.692-27.692 0-10.649 3.889-19.882 11.692-27.695 7.79-7.788 17.021-11.678 27.694-11.678h393.858c10.66 0 19.891 3.889 27.694 11.678 7.79 7.812 11.69 17.046 11.69 27.695 0 10.671-3.9 19.9-11.69 27.692-7.803 7.812-17.034 11.681-27.694 11.681h-157.551v81.25c89.020 9.832 163.789 48.296 224.319 115.386 60.506 67.065 90.771 145.935 90.771 236.616v78.78c0 10.649-3.9 19.88-11.692 27.694-7.801 7.779-17.032 11.668-27.692 11.668zM866.224 879.235l-786.805-786.806c-21.644-21.629-21.644-56.716 0-78.347 10.805-10.826 25.001-16.237 39.174-16.237s28.369 5.411 39.174 16.237l786.815 786.806c21.642 21.631 21.642 56.716 0 78.347-21.631 21.644-56.738 21.644-78.358 0z" />
<glyph unicode="&#xe92e;" glyph-name="widget-microphone" d="M511.997 251.094c54.161 0 100.511 19.282 139.073 57.829 38.556 38.547 57.836 84.921 57.836 139.077v315.070c0 54.157-19.265 100.511-57.836 139.077-38.562 38.558-84.912 57.851-139.073 57.851-54.155 0-100.511-19.293-139.075-57.851-38.567-38.56-57.847-84.921-57.847-139.077v-315.070c0-54.155 19.289-100.53 57.847-139.077s84.921-57.829 139.075-57.829zM854.753 554.461c-7.772 7.796-17.023 11.695-27.69 11.695-10.656 0-19.886-3.899-27.69-11.695-7.787-7.794-11.684-17.023-11.684-27.686v-78.774c0-75.9-26.981-140.819-80.931-194.767-53.933-53.95-118.86-80.925-194.762-80.925-75.9 0-140.821 26.975-194.773 80.925-53.945 53.933-80.916 118.864-80.916 194.767v78.774c0 10.663-3.899 19.892-11.691 27.686-7.796 7.796-17.017 11.695-27.69 11.695s-19.905-3.899-27.697-11.695c-7.798-7.794-11.695-17.023-11.695-27.686v-78.774c0-90.667 30.262-169.542 90.768-236.612 60.509-67.072 135.277-105.531 224.309-115.37v-81.239h-157.536c-10.667 0-19.897-3.903-27.69-11.7-7.796-7.79-11.695-17.023-11.695-27.69 0-10.65 3.899-19.901 11.695-27.69 7.794-7.79 17.023-11.7 27.69-11.7h393.833c10.665 0 19.907 3.908 27.69 11.7 7.805 7.787 11.706 17.038 11.706 27.69 0 10.665-3.901 19.899-11.706 27.69-7.781 7.796-17.023 11.7-27.69 11.7h-157.517v81.239c89.016 9.839 163.778 48.298 224.293 115.37 60.515 67.070 90.786 145.945 90.786 236.612v78.774c0 10.661-3.908 19.884-11.715 27.686z" />
</font>
</defs>
</svg>
